HIERARCHY
ROOT hip
{
  OFFSET 0 0 0
  CHANNELS 6 Xposition Yposition Zposition Zrotation Yrotation Xrotation
  JOINT abdomen
  {
    OFFSET 0 20.6881 -0.73152
    CHANNELS 3 Zrotation Xrotation Yrotation
    JOINT chest
    {
      OFFSET 0 11.7043 -0.48768
      CHANNELS 3 Zrotation Xrotation Yrotation
      JOINT neck
      {
        OFFSET 0 22.1894 -2.19456
        CHANNELS 3 Zrotation Xrotation Yrotation
        JOINT head
        {
          OFFSET -0.24384 7.07133 1.2192
          CHANNELS 3 Zrotation Xrotation Yrotation
          JOINT leftEye
          {
            OFFSET 4.14528 8.04674 8.04672
            CHANNELS 3 Zrotation Xrotation Yrotation
            End Site
            {
              OFFSET 1 0 0
            }
          }
          JOINT rightEye
          {
            OFFSET -3.6576 8.04674 8.04672
            CHANNELS 3 Zrotation Xrotation Yrotation
            End Site
            {
              OFFSET 1 0 0
            }
          }
        }
      }
      JOINT rCollar
      {
        OFFSET -2.68224 19.2634 -4.8768
        CHANNELS 3 Zrotation Xrotation Yrotation
        JOINT rShldr
        {
          OFFSET -8.77824 -1.95073 1.46304
          CHANNELS 3 Zrotation Xrotation Yrotation
          JOINT rForeArm
          {
            OFFSET -28.1742 -1.7115 0.48768
            CHANNELS 3 Zrotation Xrotation Yrotation
            JOINT rHand
            {
              OFFSET -22.5879 0.773209 7.07136
              CHANNELS 3 Zrotation Xrotation Yrotation
              JOINT rThumb1
              {
                OFFSET -1.2192 -0.487915 3.41376
                CHANNELS 3 Zrotation Xrotation Yrotation
                JOINT rThumb2
                {
                  OFFSET -3.37035 -0.52449 3.41376
                  CHANNELS 3 Zrotation Xrotation Yrotation
                  End Site
                  {
                    OFFSET -1.78271 -1.18214 1.43049
                  }
                }
              }
              JOINT rIndex1
              {
                OFFSET -7.75947 0.938293 5.60832
                CHANNELS 3 Zrotation Xrotation Yrotation
                JOINT rIndex2
                {
                  OFFSET -2.54057 -0.884171 1.56538
                  CHANNELS 3 Zrotation Xrotation Yrotation
                  End Site
                  {
                    OFFSET -1.62519 -0.234802 1.16502
                  }
                }
              }
              JOINT rMid1
              {
                OFFSET -8.24714 1.18213 3.41376
                CHANNELS 3 Zrotation Xrotation Yrotation
                JOINT rMid2
                {
                  OFFSET -3.10165 -0.590103 1.0647
                  CHANNELS 3 Zrotation Xrotation Yrotation
                  End Site
                  {
                    OFFSET -2.48547 -0.328903 0.83742
                  }
                }
              }
              JOINT rRing1
              {
                OFFSET -8.82822 0.546677 1.51678
                CHANNELS 3 Zrotation Xrotation Yrotation
                JOINT rRing2
                {
                  OFFSET -2.60934 -0.819778 -0.0198488
                  CHANNELS 3 Zrotation Xrotation Yrotation
                  End Site
                  {
                    OFFSET -2.33842 -0.294052 0.168128
                  }
                }
              }
              JOINT rPinky1
              {
                OFFSET -8.27202 -0.0477905 -0.4584
                CHANNELS 3 Zrotation Xrotation Yrotation
                JOINT rPinky2
                {
                  OFFSET -1.82734 -0.647385 -0.700984
                  CHANNELS 3 Zrotation Xrotation Yrotation
                  End Site
                  {
                    OFFSET -1.69225 -0.51767 -0.607171
                  }
                }
              }
            }
          }
        }
      }
      JOINT lCollar
      {
        OFFSET 2.68224 19.2634 -4.8768
        CHANNELS 3 Zrotation Xrotation Yrotation
        JOINT lShldr
        {
          OFFSET 8.77824 -1.95073 1.46304
          CHANNELS 3 Zrotation Xrotation Yrotation
          JOINT lForeArm
          {
            OFFSET 28.1742 -1.7115 0.48768
            CHANNELS 3 Zrotation Xrotation Yrotation
            JOINT lHand
            {
              OFFSET 22.5879 0.773209 7.07136
              CHANNELS 3 Zrotation Xrotation Yrotation
              JOINT lThumb1
              {
                OFFSET 1.2192 -0.487915 3.41376
                CHANNELS 3 Zrotation Xrotation Yrotation
                JOINT lThumb2
                {
                  OFFSET 3.37035 -0.52449 3.41376
                  CHANNELS 3 Zrotation Xrotation Yrotation
                  End Site
                  {
                    OFFSET 1.78271 -1.18214 1.43049
                  }
                }
              }
              JOINT lIndex1
              {
                OFFSET 7.75947 0.938293 5.60832
                CHANNELS 3 Zrotation Xrotation Yrotation
                JOINT lIndex2
                {
                  OFFSET 2.54057 -0.884171 1.56538
                  CHANNELS 3 Zrotation Xrotation Yrotation
                  End Site
                  {
                    OFFSET 1.62519 -0.234802 1.16502
                  }
                }
              }
              JOINT lMid1
              {
                OFFSET 8.24714 1.18213 3.41376
                CHANNELS 3 Zrotation Xrotation Yrotation
                JOINT lMid2
                {
                  OFFSET 3.10165 -0.590103 1.0647
                  CHANNELS 3 Zrotation Xrotation Yrotation
                  End Site
                  {
                    OFFSET 2.48547 -0.328903 0.83742
                  }
                }
              }
              JOINT lRing1
              {
                OFFSET 8.82822 0.546677 1.51678
                CHANNELS 3 Zrotation Xrotation Yrotation
                JOINT lRing2
                {
                  OFFSET 2.60934 -0.819778 -0.0198488
                  CHANNELS 3 Zrotation Xrotation Yrotation
                  End Site
                  {
                    OFFSET 2.33842 -0.294052 0.168128
                  }
                }
              }
              JOINT lPinky1
              {
                OFFSET 8.27202 -0.0477905 -0.4584
                CHANNELS 3 Zrotation Xrotation Yrotation
                JOINT lPinky2
                {
                  OFFSET 1.82734 -0.647385 -0.700984
                  CHANNELS 3 Zrotation Xrotation Yrotation
                  End Site
                  {
                    OFFSET 1.69225 -0.51767 -0.607171
                  }
                }
              }
            }
          }
        }
      }
    }
  }
  JOINT rButtock
  {
    OFFSET -8.77824 4.35084 1.2192
    CHANNELS 3 Zrotation Xrotation Yrotation
    JOINT rThigh
    {
      OFFSET 0 -1.70687 -2.19456
      CHANNELS 3 Zrotation Xrotation Yrotation
      JOINT rShin
      {
        OFFSET 0 -36.8199 0.73152
        CHANNELS 3 Zrotation Xrotation Yrotation
        JOINT rFoot
        {
          OFFSET 0.73152 -45.1104 -5.12064
          CHANNELS 3 Zrotation Xrotation Yrotation
          End Site
          {
            OFFSET -1.1221 -3.69964 12.103
          }
        }
      }
    }
  }
  JOINT lButtock
  {
    OFFSET 8.77824 4.35084 1.2192
    CHANNELS 3 Zrotation Xrotation Yrotation
    JOINT lThigh
    {
      OFFSET 0 -1.70687 -2.19456
      CHANNELS 3 Zrotation Xrotation Yrotation
      JOINT lShin
      {
        OFFSET 0 -36.8199 0.73152
        CHANNELS 3 Zrotation Xrotation Yrotation
        JOINT lFoot
        {
          OFFSET -0.73152 -45.1104 -5.12064
          CHANNELS 3 Zrotation Xrotation Yrotation
          End Site
          {
            OFFSET 1.1221 -3.69964 12.103
          }
        }
      }
    }
  }
}
MOTION
Frames:	4
Frame Time:	0.00833333
45.824677 -0.575521 2.935627 -169.7077 67.754524 -158.89143 -0.811705 19.582367 8.08465 -0.071835 -11.965061 2.91886 -2.921503 16.63637 2.018274 7.575484 -25.392597 4.570305 0.377723 0.556936 0.320184 1.349027 -0.306343 1.137343 -0.614743 -0.608807 0.018293 11.170732 50.459045 42.07596 -27.203045 -40.43662 89.44376 -0.106952 3.805916 -1.905096 0.093179 0.455676 -0.059413 -1.158295 0.286157 -0.46864 0.313804 -0.040888 1.049437 6.483598 5.713464 0.432901 -0.198343 -0.792998 0.72495 3.450621 0.23625 1.255189 -0.117956 -0.337647 0.056302 11.494024 0.563147 0.595102 0.895832 -0.04293 0.399633 3.16262 -0.960752 -0.204049 0.400971 -0.587083 0.389487 -66.29707 15.820251 -6.449255 25.876644 -34.2893 -73.044266 6.058696 -27.349016 4.533784 -0.40711 1.314588 0.08075 -0.064582 1.072091 0.577745 0.080892 0.201045 -1.084236 -7.87753 5.58239 -0.045276 -0.704413 -0.031564 1.470947 -3.907092 0.526346 -0.750069 0.431742 0.949715 -1.687986 -9.919641 0.797184 1.0055 0.575846 0.640284 -0.056166 -2.102561 -0.475711 -0.016663 0.467232 -0.086077 -0.955341 -38.376534 -39.425186 -26.061487 -9.232937 68.71191 10.772228 0.822279 -18.492302 -1.836118 0.221706 0.044346 -0.579187 60.270878 -53.89793 49.2698 2.221736 78.18013 -3.052112 0.795556 -22.598804 6.019938
45.752865 -0.774167 2.528026 -173.52551 69.43693 -164.55054 -1.242691 19.824654 9.004146 -0.340841 -11.860852 2.869476 -2.376022 16.651836 3.048297 7.131357 -25.359152 6.751909 0.387176 0.577109 0.239492 1.385702 -0.269382 0.831235 -0.422571 -0.598991 -0.013649 11.041459 52.729897 41.79866 -27.65133 -40.351246 89.07269 -0.762159 3.887885 -2.914395 0.206135 0.349994 -0.167831 -1.157686 0.08492 -0.6866 0.257622 -0.049112 0.920381 6.411626 5.694921 0.291614 0.021942 -0.974241 0.72861 3.620338 0.302609 1.251678 -0.110045 -0.426793 -0.214598 11.604087 0.324182 0.678459 0.992004 0.126716 0.517363 3.0998 -0.890564 -0.414754 0.474665 -0.65224 0.417451 -65.97653 14.502147 -8.905027 25.998198 -33.339817 -71.76134 6.664356 -29.489614 5.237845 -0.430976 1.399629 -0.021727 0.019907 0.894266 0.57168 0.038145 0.259163 -1.150376 -7.811652 5.75999 -0.258486 -0.618582 0.027589 1.620614 -3.826718 0.396846 -0.767877 0.624671 0.763642 -1.615764 -10.011355 0.739983 0.697478 0.552541 0.680057 -0.157273 -2.281597 -0.689492 -0.158716 0.497584 0.115961 -0.926126 -39.878952 -38.489033 -28.35762 -8.677516 67.023575 10.554843 0.562623 -17.411436 -3.99162 0.083742 0.156239 -0.529287 61.303722 -53.014313 50.340153 2.847942 76.77956 -3.526683 1.116407 -22.801266 6.654609
45.932186 -0.733753 2.1601 -174.99359 71.79235 -167.18423 -1.568732 19.38158 9.272872 -0.218107 -11.751744 2.814595 -2.173856 16.730848 3.636966 7.016765 -24.811193 7.791599 0.350207 0.50371 0.092716 1.412755 -0.373534 0.515837 -0.29151 -0.41717 -0.028609 11.766958 55.1826 41.378727 -27.919626 -40.677425 89.21661 -0.69516 3.745132 -3.358166 0.313661 0.254614 -0.253052 -1.075147 -0.027174 -0.853506 0.170091 0.006597 0.785082 6.386026 5.604926 0.157225 0.20314 -1.03489 0.716905 3.746112 0.254127 1.257324 -0.090653 -0.487713 -0.505689 11.61811 0.264385 0.746009 1.006803 0.306148 0.705297 2.927451 -0.777824 -0.611049 0.49868 -0.602657 0.343397 -65.10699 13.499231 -11.624814 26.314201 -33.30896 -71.93831 6.627053 -33.044075 5.509726 -0.467496 1.448442 -0.186931 0.128436 0.672056 0.563137 0.023189 0.266503 -1.15632 -7.659474 5.882512 -0.352272 -0.5305 0.047534 1.60406 -3.663015 0.179884 -0.827457 0.7159 0.482504 -1.618416 -10.042265 0.779311 0.368188 0.686035 0.633212 -0.238558 -2.393009 -0.68561 -0.334677 0.529221 0.0161 -0.793461 -41.33389 -38.362698 -30.124638 -8.674706 67.1198 10.385956 0.179161 -16.431278 -5.907994 0.020149 0.139396 -0.573182 62.548244 -52.51567 51.030243 4.347399 76.9181 -4.512228 1.21205 -23.294786 6.977532
46.09751 -0.524303 1.886756 -175.126 74.92387 -167.93777 -1.81387 18.373232 8.927096 0.107236 -11.701788 2.737135 -2.146682 16.772558 3.780804 6.982297 -24.031992 7.899644 0.282998 0.36855 -0.001398 1.307096 -0.615637 0.29065 -0.247619 -0.168306 0.017496 13.155401 57.59221 41.395473 -27.755457 -41.09913 89.52732 -0.421567 4.142813 -3.154534 0.400269 0.196413 -0.327873 -0.863994 -0.015367 -0.941685 0.11008 0.089548 0.721143 6.38627 5.44306 0.051502 0.286812 -0.985997 0.733577 3.865712 0.195547 1.192598 -0.105123 -0.478963 -0.743711 11.592426 0.33388 0.812078 0.940112 0.449295 0.838418 2.678343 -0.63798 -0.778785 0.46434 -0.485829 0.181083 -63.671467 12.948885 -14.549492 26.831778 -34.344788 -73.59953 6.244159 -36.986023 5.419656 -0.53247 1.48482 -0.376608 0.174666 0.511136 0.59764 0.034385 0.219562 -1.139182 -7.510313 5.954136 -0.300698 -0.416804 0.044822 1.419227 -3.47349 0.024802 -0.913576 0.669742 0.203528 -1.677017 -10.022223 0.819513 0.077807 0.941141 0.454865 -0.265018 -2.477406 -0.481978 -0.459663 0.530531 -0.236013 -0.593456 -42.50981 -39.20568 -31.2103 -9.6936 69.38829 11.033868 -0.056313 -15.554502 -7.050526 0.052624 0.077361 -0.648798 62.854946 -52.88259 50.591015 6.583164 78.45632 -6.045832 1.241675 -23.952393 6.782957
